# xmcd
# 
# Track frame offsets:
#     150
#     21609
#     46069
#     60197
#     80414
#     102362
#     119618
#     143640
#     161382
#     180153
# 
# Disc length: 2558
# 
# Revision: 0
# Processed by: cddbd v1.5.2PL0 Copyright (c) Steve Scherf et al.
# Submitted via: fre:ac v1.0.31
# 
DISCID=7509fc0a
DTITLE=Jimi Goodwin - Odludek
DYEAR=2014
DGENRE=
TTITLE0=Terracotta Warrior
TTITLE1=Didsbury Girl
TTITLE2=Live Like A River
TTITLE3=Hope
TTITLE4=Man v Dingo
TTITLE5=Keep My Soul In Song
TTITLE6=Oh! Whiskey
TTITLE7=The Ghost Of The Empties
TTITLE8=Lonely At The Drop
TTITLE9=Panic Tree
EXTD=
EXTT0=
EXTT1=
EXTT2=
EXTT3=
EXTT4=
EXTT5=
EXTT6=
EXTT7=
EXTT8=
EXTT9=
PLAYORDER=
